ply
format ascii 1.0
comment Generated by PDAL
element vertex 10
property float64 x
property float64 y
property float64 z
element face 11
property list uint8 uint32 vertex_indices
end_header
591124.338 1051283.918 0.000
590742.991 1051321.735 0.000
591023.340 1051259.930 0.000
590801.711 1051469.316 0.000
590959.048 1051453.793 0.000
591173.372 1051507.875 0.000
590979.768 1051357.956 0.000
591135.024 1051535.881 0.000
591217.310 1051422.791 0.000
590945.741 1051185.752 0.000
3 4 3 6
3 3 1 6
3 6 2 0
3 1 9 6
3 6 9 2
3 6 0 8
3 9 0 2
3 4 7 3
3 6 7 4
3 6 5 7
3 6 8 5
